Boston blue T1 [AMZN WEB-DL 1080p] [CASTELLANO][3,70GB][01/21][MEGA]


[url=https://postimg.cc/bDXgXYpP][img]https://i.postimg.cc/d13xyDfh/68f4e818e702e.png[/img][/url]




Ficha Técnica  
TÍTULO: Boston Blue
TÍTULO ORIGINAL: Boston Blue
CAPÍTULOS: 21 (Temporada 1)
AÑO: 2025-2026
DURACIÓN: Aprox. 43 minutos por episodio
PAÍS: Estados Unidos
DIRECTOR: Varios, incluyendo Sherwin Shilati, Randy Zisk, Sudz Sutherland, Anthony Hemingway (entre otros)
GUIÓN: Brandon Sonnier, Brandon Margolis (creadores y productores ejecutivos), Rebecca Perry Cutter y otros
FOTOGRAFÍA: No especificado prominentemente en fuentes principales (típico de series procedimentales de CBS)
REPARTO: Donnie Wahlberg (Danny Reagan), Sonequa Martin-Green (Lena Silver), Ernie Hudson, Maggie Lawson, Marcus Scribner, Mika Amonsen (Sean Reagan), Gloria Reuben y otros
PRODUCTORA: CBS (en asociación con productores de Blue Bloods como Jerry Bruckheimer Television)
GÉNERO: Serie de TV. Drama. Crimen. Procedimental policial | Spin-off de Blue Bloods
RATING: 6.2/10 en IMDb



Sinopsis
Boston Blue es un spin-off de la longeva serie Blue Bloods, centrado en el detective Danny Reagan (Donnie Wahlberg), quien deja el NYPD para unirse al Departamento de Policía de Boston. Allí forma pareja con la detective Lena Silver (Sonequa Martin-Green), la hija mayor de una prominente familia dedicada a la aplicación de la ley en la ciudad. La serie combina casos policiales semanales con el drama familiar, explorando temas de lealtad, justicia, tradición policial y adaptación a un nuevo entorno, manteniendo el espíritu de cenas familiares y dilemas morales característico del universo Blue Bloods, pero ambientado en la vibrante y conflictiva Boston.





Datos Del Ripeo

Ripeo Por: MattDrayton
Fuente del audio: AMZN
Versión: AMZN WEB-DL 1080p (Sin Logos ni publicidad)
Servidores: Mega





Datos del Video
Formato: Matroska
Video: High@L4 | 1920x960 @ 6 266 kb/s
Framerate: 25.000
Resolución: 1920x1080
Audio: Castellano AC3 256Kbps 2 canales
Subtitulos: SI


[SPOILER]

MediaInfo:

Video
ID : 1
Format : AVC
Format/Info : Advanced Video Codec
Format profile : High@L4
Format settings : CABAC / 4 Ref Frames
Format settings, CABAC : Yes
Format settings, Reference : 4 frames
Codec ID : V_MPEG4/ISO/AVC
Duration : 43 min 49 s
Bit rate mode : Constant
Bit rate : 6 151 kb/s
Nominal bit rate : 10 000 kb/s
Width : 1 920 pixels
Height : 960 pixels
Display aspect ratio : 2.000
Frame rate mode : Constant
Frame rate : 23.976 (24000/1001) FPS
Color space : YUV
Chroma subsampling : 4:2:0
Bit depth : 8 bits
Scan type : Progressive
Bits/(Pixel*Frame) : 0.139
Stream size : 1.88 GiB (91%)
Default : Yes
Forced : No
Color range : Limited
Color primaries : BT.709
Transfer characteristics : BT.709
Matrix coefficients : BT.709



Audio
Format : AC-3
Format/Info : Audio Coding 3
Commercial name : Dolby Digital
Bit rate mode : Constant
Bit rate : 256 kb/s
Channel(s) : 2 channels
Channel layout : L R
Sampling rate : 48.0 kHz
Frame rate : 31.250 FPS (1536 SPF)
Compression mode : Lossy
Stream size : 80.7 MiB (100%)
Service kind : Complete Main

[/SPOILER]




[Hide]
[code]

1x01 Fe y Familia



[/code]
[/Hide]